Coordinates
version=1
nRows=19
nColumns=24
inDegrees=yes

Units are S.I. units (second, meters, Newtons, ...)
Angles are in degrees.

endheader
time	pelvis_tilt	pelvis_list	pelvis_rotation	pelvis_tx	pelvis_ty	pelvis_tz	hip_flexion_r	hip_adduction_r	hip_rotation_r	knee_angle_r	ankle_angle_r	subtalar_angle_r	mtp_angle_r	hip_flexion_l	hip_adduction_l	hip_rotation_l	knee_angle_l	ankle_angle_l	subtalar_angle_l	mtp_angle_l	lumbar_extension	lumbar_bending	lumbar_rotation
      4.10500000	     12.20623901	     11.03763543	     19.38016757	     -0.05181181	      0.73097873	     -0.28959958	     13.46759514	    -14.28508059	    -13.31375836	    -14.69383320	     17.84591158	     10.47735254	      0.00000000	    -27.67254335	      2.91912939	     10.43269166	    -28.06545635	     30.57268402	     16.45324896	      0.00000000	    -29.96380285	     -0.96250712	    -16.75351818
      4.11000000	     12.04733704	     10.55947848	     19.22806604	     -0.04306533	      0.73061591	     -0.28898370	     13.79703527	    -13.67801993	    -13.19164360	    -15.71619867	     17.01745050	      9.56102954	      0.00000000	    -26.93581509	      2.60422709	     10.36071724	    -30.09109772	     29.20500750	     15.73734168	      0.00000000	    -29.52404678	     -0.75150916	    -15.95060854
      4.11500000	     11.93858150	     10.03386724	     19.02484167	     -0.03437071	      0.73034912	     -0.28833597	     14.08259125	    -12.99301745	    -13.01582372	    -16.74376687	     16.18036304	      8.63468044	      0.00000000	    -26.15549474	      2.26947351	     10.19953219	    -32.21983006	     27.65023238	     14.94268059	      0.00000000	    -29.13676211	     -0.48179537	    -15.08598988
      4.12000000	     11.85375824	      9.47094442	     18.80090203	     -0.02574771	      0.73015671	     -0.28767379	     14.35022404	    -12.26059934	    -12.84077787	    -17.79770980	     15.40604556	      7.77846879	      0.00000000	    -25.30779274	      1.92386535	      9.99736353	    -34.44142864	     25.91288130	     13.99071129	      0.00000000	    -28.78246890	     -0.16077719	    -14.22618420
      4.12500000	     11.77536463	      8.87791172	     18.55804500	     -0.01721239	      0.73003189	     -0.28704684	     14.60017679	    -11.49252895	    -12.63649115	    -18.83037792	     14.72064737	      6.98460407	      0.00000000	    -24.37646529	      1.58211578	      9.76765948	    -36.74964836	     23.95422622	     12.92319683	      0.00000000	    -28.44208924	      0.21278697	    -13.36201426
      4.13000000	     11.72117105	      8.24414645	     18.30779385	     -0.00876510	      0.72998474	     -0.28640764	     14.81285269	    -10.67182220	    -12.44841261	    -19.84362196	     14.14118947	      6.31283992	      0.00000000	    -23.38106277	      1.21015032	      9.50147034	    -39.11695148	     21.83570545	     11.71334541	      0.00000000	    -28.13901912	      0.64401352	    -12.51337843
      4.13500000	     11.68356021	      7.57307030	     18.05693930	     -0.00041501	      0.73000830	     -0.28578402	     14.98537793	     -9.80508290	    -12.27303989	    -20.81348835	     13.69195068	      5.75304976	      0.00000000	    -22.32103577	      0.81027908	      9.21542637	    -41.52156330	     19.56609389	     10.37327667	      0.00000000	    -27.86736063	      1.13459608	    -11.68772608
      4.14000000	     11.66527162	      6.86958745	     17.81354586	      0.00783857	      0.73010853	     -0.28518012	     15.10254817	     -8.89533892	    -12.12064841	    -21.71920672	     13.39060960	      5.30976413	      0.00000000	    -21.20740431	      0.38185996	      8.93207036	    -43.94079283	     17.19134012	      8.91701893	      0.00000000	    -27.63054396	      1.68250572	    -10.88735932
      4.14500000	     11.75363914	      6.08365388	     17.59298243	      0.01602858	      0.73035072	     -0.28464246	     15.06365675	     -7.88943595	    -12.13180252	    -22.53660088	     13.23261686	      5.17615470	      0.00000000	    -20.13658715	     -0.17545722	      8.62007564	    -46.33125183	     14.83033448	      7.42854217	      0.00000000	    -27.49844572	      2.38253853	    -10.11727345
      4.15000000	     11.66731118	      5.38311513	     17.36815510	      0.02403376	      0.73051929	     -0.28405431	     15.16664237	     -6.97023053	    -11.88243499	    -23.28664245	     13.21972985	      4.73670076	      0.00000000	    -18.83303946	     -0.55101848	      8.41910815	    -48.72725498	     12.34708627	      5.77783866	      0.00000000	    -27.25036963	      2.93005432	     -9.40637542
      4.15500000	     11.68142622	      4.60440186	     17.17923224	      0.03197748	      0.73082225	     -0.28354732	     15.10604463	     -5.96125820	    -11.80937910	    -23.91963288	     13.33886037	      4.57857549	      0.00000000	    -17.58030988	     -1.05461642	      8.22014673	    -51.05836812	     10.02505926	      4.19590717	      0.00000000	    -27.09904374	      3.62462444	     -8.72720948
      4.16000000	     11.70754542	      3.82335508	     17.01310853	      0.03981385	      0.73120085	     -0.28308580	     14.97195196	     -4.94214619	    -11.76379064	    -24.44198907	     13.57973871	      4.48850655	      0.00000000	    -16.30357590	     -1.55777463	      8.08082611	    -53.32256424	      7.85375130	      2.64800245	      0.00000000	    -26.98172606	      4.34548221	     -8.09659066
      4.16500000	     11.80831979	      3.00333635	     16.86222375	      0.04759026	      0.73169828	     -0.28268248	     14.68898336	     -3.86060163	    -11.77735144	    -24.81384069	     13.93534366	      4.57933591	      0.00000000	    -15.07986128	     -2.12571452	      7.97027303	    -55.49394238	      5.97262500	      1.27069276	      0.00000000	    -26.94889712	      5.14997039	     -7.47826732
      4.17000000	     11.86031193	      2.24163526	     16.74217259	      0.05522678	      0.73223273	     -0.28232613	     14.39451010	     -2.84349724	    -11.76802943	    -25.09140608	     14.36567887	      4.58237824	      0.00000000	    -13.78467485	     -2.59624835	      7.97047153	    -57.58820485	      4.30208992	     -0.06376730	      0.00000000	    -26.90339501	      5.89581190	     -6.93710049
      4.17500000	     11.89762270	      1.51144801	     16.63995980	      0.06276175	      0.73282303	     -0.28202085	     14.05220809	     -1.85667327	    -11.75593859	    -25.26006329	     14.86281963	      4.59384533	      0.00000000	    -12.46031996	     -3.01219262	      8.04224939	    -59.58969168	      2.95510964	     -1.21661179	      0.00000000	    -26.86561554	      6.61825737	     -6.44296387
      4.18000000	     11.87109739	      0.82834144	     16.58225139	      0.07018027	      0.73342552	     -0.28177657	     13.71786072	     -0.93662459	    -11.77311434	    -25.33851230	     15.38927631	      4.50763501	      0.00000000	    -11.04451322	     -3.34501639	      8.21584039	    -61.51270639	      1.92172554	     -2.17121639	      0.00000000	    -26.78198789	      7.29182527	     -6.00928438
      4.18500000	     11.94975368	      0.15537564	     16.48736094	      0.07756980	      0.73419188	     -0.28156437	     13.19570866	      0.02023992	    -11.72936597	    -25.25980941	     15.97274591	      4.63054452	      0.00000000	     -9.76422979	     -3.67923867	      8.36884505	    -63.28932040	      1.33639861	     -2.89716637	      0.00000000	    -26.82389289	      7.98669862	     -5.58288952
      4.19000000	     11.99697772	     -0.46692796	     16.44065550	      0.08486510	      0.73500513	     -0.28142668	     12.64289813	      0.91254548	    -11.72706229	    -25.08347863	     16.54101162	      4.66970782	      0.00000000	     -8.43687949	     -3.93794824	      8.60602376	    -64.96892686	      1.06958345	     -3.43221165	      0.00000000	    -26.84624586	      8.64102247	     -5.21110539
      4.19500000	     12.03211664	     -1.04643827	     16.40736879	      0.09209498	      0.73587065	     -0.28132780	     12.04445564	      1.76313489	    -11.71740589	    -24.80728660	     17.09669166	      4.68455151	      0.00000000	     -7.09891819	     -4.13430717	      8.88143755	    -66.53346248	      1.15516651	     -3.73576511	      0.00000000	    -26.86938592	      9.25412100	     -4.87666157
